<svg width="317" height="317" viewBox="0 0 317 317" fill="none" xmlns="http://www.w3.org/2000/svg">
<rect width="316.064" height="316.064" fill="#F8FF66"/>
<path d="M222.384 91.0044C225.52 89.1978 228.075 87.7132 230.666 85.4083C237.357 79.454 239.271 71.542 238.158 62.9214C237.82 60.304 239.866 57.2872 242.828 58.578C247.009 60.2124 250.457 65.7778 252.225 69.5458C254.261 73.7826 255.426 78.3847 255.651 83.0797C255.876 87.7746 255.157 92.467 253.535 96.879C250.763 104.338 244.234 112.473 236.972 115.838L236.734 115.945C236.244 115.611 233.006 107.41 232.381 106.176C229.599 100.777 226.248 95.691 222.384 91.0044Z" fill="#EFAA8A"/>
<path d="M79.7728 116.13C64.357 108.662 56.7075 89.8991 62.2275 73.9325C63.7773 69.4509 69.5283 57.0879 75.7984 58.5972C78.5085 59.2495 77.5329 67.2032 77.668 69.5421C77.7858 71.6805 78.2054 73.7915 78.9145 75.8124C81.5847 83.3717 86.6721 87.311 93.6328 90.6255C89.4357 96.3966 85.669 102.318 82.8045 108.888C82.2459 110.17 80.363 115.462 79.7728 116.13Z" fill="#EFAA8A"/>
<path d="M93.6328 90.4366C105.557 74.0542 126.339 62.5295 146.246 59.3876C156.515 57.8059 166.995 58.2729 177.083 60.7618C187.17 63.2506 196.665 67.712 205.018 73.8884C211.581 78.6787 217.428 84.3782 222.384 90.8154C226.248 95.5021 229.599 100.588 232.381 105.987C235.236 111.623 237.34 117.539 238.758 123.672C239.506 126.986 240.082 130.336 240.485 133.709C241.637 143.623 240.935 153.664 238.417 163.322C235.919 172.784 231.418 182.333 225.219 189.865C220.912 195.098 219.146 199.646 221.727 206.384C223.034 209.796 226.575 212.704 229.847 214.191C235.826 216.767 244.029 215.626 246.64 208.896C247.908 205.771 247.137 201.658 243.523 200.579C240.49 199.675 240.152 203.94 238.52 205.19C236.495 206.74 233.218 206.001 231.929 203.832C228.556 198.156 231.787 191.389 237.082 188.302C246.783 182.797 257.688 187.359 262.983 196.565C266.521 202.82 267.465 210.212 265.613 217.155C263.579 224.646 258.588 230.759 251.834 234.539C242.754 239.62 232.053 240.032 222.151 237.29C218.768 236.354 215.703 234.85 212.549 233.369C215.208 237.372 217.932 242.437 216.595 247.073C212.437 261.491 193.226 258.828 184.406 250.458C179.991 246.269 178.59 244.134 175.604 239.405C176.159 243.681 176.005 247.379 173.206 251.075C164.987 261.925 142.484 259.006 140.933 244.168C140.787 242.773 140.848 241.008 140.905 239.561C135.428 248.114 130.088 254.361 119.696 256.825C111.618 258.741 101.293 255.896 99.4324 246.783C98.23 240.832 100.704 236.836 103.775 232.011C100.541 234.097 97.6759 235.141 94.1667 236.4C75.9891 242.924 54.1849 235.015 50.0483 214.73C48.0408 204.886 51.868 194.567 60.4289 188.902C67.6513 184.204 78.2831 184.805 83.2092 192.473C85.5348 196.223 86.415 202.436 82.053 205.097C80.1247 206.314 77.3556 206.349 76.3657 203.945C75.2151 201.13 73.7895 199.029 70.6464 201.159C67.5427 203.263 68.1682 208.761 70.3197 211.218C78.3362 220.371 93.2053 212.904 94.3569 201.827C95.1822 193.888 90.9283 190.89 87.2298 184.597C84.6435 180.275 82.8462 176.914 80.9069 172.259C77.8005 164.625 75.9659 156.533 75.4758 148.306C74.9502 140.232 75.6123 132.126 77.4408 124.244C77.9696 121.984 79.4919 117.837 79.7728 115.941C80.363 115.273 82.2459 109.981 82.8045 108.699C85.669 102.129 89.4358 96.2077 93.6328 90.4366Z" fill="#FFC8AE"/>
<path d="M124.66 144.16L124.854 144.13C130.822 143.493 136.81 145.143 141.608 148.749C144.421 150.874 146.785 153.536 148.562 156.58C150.34 159.625 151.495 162.992 151.962 166.486C152.922 173.627 151.174 181.397 146.762 187.148C144.856 189.676 142.466 191.799 139.732 193.394C136.997 194.99 133.972 196.025 130.833 196.44C110.005 199.063 97.4064 175.928 105.614 158.288C109.46 150.02 115.794 145.547 124.66 144.16Z" fill="#FDFDFD"/>
<path d="M129.387 156.457C133.932 156.073 138.583 157.328 141.903 160.51C152.663 170.821 146.468 189.117 131.172 189.685C129.29 189.626 127.435 189.22 125.7 188.489C117.073 184.898 113.592 175.081 117.058 166.598C118.45 166.753 123.653 167.517 123.558 164.453C123.521 163.267 121.54 161.803 120.505 161.156C123.803 158.269 125.08 157.28 129.387 156.457Z" fill="#010130"/>
<path d="M196.415 156.198C196.635 156.185 196.937 156.177 197.149 156.229C207.651 158.849 211.785 170.021 210.044 179.723C209.574 182.435 208.568 185.025 207.083 187.343C205.598 189.661 203.666 191.659 201.399 193.22C196.221 196.788 191.14 197.257 185.118 196.167C184.535 195.989 183.937 195.802 183.366 195.588C180.808 194.632 178.465 193.176 176.475 191.306C174.486 189.436 172.888 187.189 171.775 184.695C169.721 179.981 169.317 171.842 173.441 168.191C175.632 166.25 180.27 164.242 182.997 162.836C187.401 160.566 191.894 158.187 196.415 156.198Z" fill="#FDFDFD"/>
<path d="M189.487 166.727C191.82 167.112 193.069 168.611 194.355 170.369C193.219 171.229 191.167 172.704 192.729 174.352C193.648 175.323 195.303 175.063 196.545 174.995C198.197 184.744 191.414 192.58 181.332 190.163C174.493 187.453 172.698 182.014 173.371 175.164C177.502 175.31 179.24 173.799 175.491 170.631C178.845 168.064 185.257 167.194 189.487 166.727Z" fill="#010130"/>
<path d="M191.327 198.645C194.804 198.639 196.467 199.915 198.629 201.893C203.116 206.651 203.041 211.476 200.273 217.089C198.821 219.423 197.839 220.502 195.54 222.058C192.068 224.409 188.292 225.908 184.333 227.2C170.173 231.818 153.227 231.949 138.657 229.158C132.041 227.89 123.077 225.163 118.113 220.462C117.019 219.426 116.24 218.277 115.402 217.041C113.025 211.707 113.22 206.79 117.251 202.287C119.55 200.242 122.178 198.734 125.35 198.711C128.37 198.69 130.854 200.393 133.518 201.588C145.921 207.153 166.36 207.797 179.466 202.843C183.368 201.368 187.261 198.652 191.326 198.645H191.327Z" fill="url(#paint0_linear_3625_17871)"/>
<path d="M130.486 208.775C138.078 213.45 160.635 220.754 186.71 209.573L187.387 209.283C188.736 208.704 190.228 209.729 190.173 211.196L190.023 215.2L189.783 216.737C161.073 229.049 135.849 221.234 126.398 215.413C125.991 215.141 125.783 214.655 125.867 214.173L126.66 209.636C126.903 208.244 128.475 207.536 129.679 208.278L130.486 208.775Z" fill="url(#paint1_linear_3625_17871)"/>
<path d="M127.966 211.801C128.128 211.54 128.471 211.458 128.733 211.62C137.122 216.786 160.822 224.31 188.025 212.644C188.308 212.523 188.636 212.653 188.757 212.935C188.878 213.218 188.747 213.546 188.465 213.667C160.884 225.495 136.802 217.898 128.148 212.568C127.887 212.406 127.805 212.063 127.966 211.801Z" fill="#D40A1C"/>
<defs>
<linearGradient id="paint0_linear_3625_17871" x1="157.968" y1="230.683" x2="158.032" y2="205.91" gradientUnits="userSpaceOnUse">
<stop stop-color="#DB1627"/>
<stop offset="1" stop-color="#FF384A"/>
</linearGradient>
<linearGradient id="paint1_linear_3625_17871" x1="156.69" y1="215.733" x2="156.438" y2="223.48" gradientUnits="userSpaceOnUse">
<stop stop-color="#E52032"/>
<stop offset="1" stop-color="#E9293E"/>
</linearGradient>
</defs>
</svg>
