<svg width="317" height="317" viewBox="0 0 317 317" fill="none" xmlns="http://www.w3.org/2000/svg">
<rect width="316.064" height="316.064" fill="#E51395"/>
<path d="M222.384 91.0044C225.52 89.1978 228.075 87.7132 230.665 85.4083C237.357 79.454 239.271 71.542 238.158 62.9214C237.82 60.304 239.866 57.2872 242.828 58.578C247.009 60.2124 250.457 65.7778 252.225 69.5458C254.261 73.7826 255.426 78.3847 255.651 83.0797C255.876 87.7746 255.157 92.467 253.535 96.879C250.763 104.338 244.234 112.473 236.972 115.838L236.733 115.945C236.244 115.611 233.006 107.41 232.381 106.176C229.599 100.777 226.247 95.691 222.384 91.0044Z" fill="#EF9ED0"/>
<path d="M79.7725 116.13C64.3567 108.662 56.7073 89.8991 62.2273 73.9325C63.777 69.4509 69.528 57.0879 75.7982 58.5972C78.5082 59.2495 77.5326 67.2032 77.6678 69.5421C77.7855 71.6805 78.2052 73.7915 78.9142 75.8124C81.5844 83.3717 86.6718 87.311 93.6326 90.6255C89.4355 96.3966 85.6687 102.318 82.8043 108.888C82.2457 110.17 80.3627 115.462 79.7725 116.13Z" fill="#EF9ED0"/>
<path d="M93.6325 90.6256C105.556 74.2432 126.339 62.7184 146.245 59.5766C156.514 57.9949 166.995 58.4619 177.083 60.9508C187.17 63.4396 196.665 67.901 205.018 74.0773C211.58 78.8676 217.428 84.5671 222.383 91.0044C226.247 95.6911 229.599 100.777 232.381 106.176C235.236 111.812 237.34 117.728 238.758 123.861C239.506 127.175 240.082 130.525 240.485 133.898C241.636 143.812 240.935 153.853 238.417 163.511C235.919 172.973 231.417 182.522 225.219 190.054C220.912 195.287 219.146 199.835 221.727 206.573C223.034 209.985 226.575 212.893 229.846 214.38C235.825 216.956 244.028 215.815 246.639 209.085C247.907 205.96 247.137 201.846 243.522 200.768C240.489 199.864 240.152 204.129 238.519 205.379C236.494 206.929 233.218 206.19 231.929 204.021C228.556 198.345 231.786 191.578 237.081 188.491C246.782 182.986 257.688 187.548 262.983 196.754C266.52 203.009 267.465 210.401 265.613 217.344C263.579 224.835 258.588 230.948 251.833 234.728C242.754 239.809 232.053 240.221 222.151 237.479C218.768 236.543 215.702 235.039 212.549 233.558C215.208 237.561 217.932 242.626 216.595 247.262C212.437 261.68 193.226 259.017 184.406 250.647C179.991 246.458 178.59 244.323 175.604 239.594C176.159 243.87 176.004 247.568 173.205 251.264C164.987 262.114 142.484 259.195 140.932 244.357C140.787 242.962 140.848 241.197 140.904 239.75C135.428 248.303 130.088 254.55 119.696 257.014C111.617 258.93 101.292 256.085 99.432 246.972C98.2296 241.021 100.703 237.025 103.774 232.2C100.541 234.286 97.6756 235.33 94.1663 236.589C75.9887 243.113 54.1845 235.204 50.048 214.919C48.0404 205.075 51.8677 194.756 60.4286 189.091C67.651 184.393 78.2827 184.994 83.2088 192.662C85.5344 196.412 86.4147 202.625 82.0527 205.286C80.1244 206.503 77.3552 206.538 76.3654 204.134C75.2147 201.319 73.7891 199.218 70.646 201.348C67.5424 203.452 68.1679 208.95 70.3193 211.407C78.3358 220.56 93.2049 213.093 94.3565 202.016C95.1818 194.077 90.9279 191.079 87.2294 184.786C84.6431 180.464 82.8459 177.103 80.9066 172.448C77.8002 164.814 75.9655 156.722 75.4755 148.495C74.9499 140.421 75.6119 132.315 77.4404 124.433C77.9692 122.173 79.4915 118.026 79.7724 116.13C80.3626 115.462 82.2456 110.17 82.8042 108.888C85.6687 102.318 89.4354 96.3966 93.6325 90.6256Z" fill="#FFA9DE"/>
<path d="M124.66 144.16L124.854 144.13C130.822 143.493 136.81 145.143 141.607 148.749C144.421 150.874 146.785 153.536 148.562 156.58C150.34 159.625 151.495 162.992 151.961 166.486C152.921 173.627 151.174 181.397 146.761 187.148C144.856 189.676 142.466 191.799 139.731 193.394C136.997 194.99 133.972 196.025 130.833 196.44C110.005 199.063 97.4061 175.928 105.613 158.288C109.46 150.02 115.794 145.547 124.66 144.16Z" fill="#FDFDFD"/>
<path d="M129.387 156.457C133.932 156.073 138.582 157.328 141.902 160.51C152.662 170.821 146.468 189.117 131.172 189.685C129.29 189.626 127.435 189.22 125.7 188.489C117.072 184.898 113.592 175.081 117.058 166.598C118.449 166.753 123.652 167.517 123.557 164.453C123.521 163.267 121.54 161.803 120.505 161.156C123.803 158.269 125.08 157.28 129.387 156.457Z" fill="#010130"/>
<path d="M196.415 156.198C196.635 156.185 196.937 156.177 197.149 156.229C207.65 158.849 211.785 170.021 210.044 179.723C209.574 182.435 208.567 185.025 207.083 187.343C205.598 189.661 203.666 191.659 201.398 193.22C196.221 196.788 191.14 197.257 185.118 196.167C184.535 195.989 183.937 195.802 183.366 195.588C180.807 194.632 178.465 193.176 176.475 191.306C174.485 189.436 172.887 187.189 171.775 184.695C169.721 179.981 169.317 171.842 173.441 168.191C175.632 166.25 180.27 164.242 182.996 162.836C187.401 160.566 191.894 158.187 196.415 156.198Z" fill="#FDFDFD"/>
<path d="M189.487 166.727C191.82 167.112 193.069 168.611 194.355 170.369C193.219 171.229 191.167 172.704 192.729 174.352C193.648 175.323 195.303 175.063 196.544 174.995C198.197 184.744 191.414 192.58 181.332 190.163C174.493 187.453 172.698 182.014 173.371 175.164C177.502 175.31 179.24 173.799 175.49 170.631C178.845 168.064 185.257 167.194 189.487 166.727Z" fill="#010130"/>
<path d="M191.327 198.645C194.804 198.639 196.467 199.915 198.629 201.893C203.115 206.651 203.041 211.476 200.273 217.089C198.821 219.423 197.839 220.502 195.54 222.058C192.068 224.409 188.291 225.908 184.332 227.2C170.173 231.818 153.227 231.949 138.657 229.158C132.041 227.89 123.077 225.163 118.112 220.462C117.019 219.426 116.24 218.277 115.401 217.041C113.024 211.707 113.219 206.79 117.251 202.287C119.55 200.242 122.178 198.734 125.35 198.711C128.37 198.69 130.854 200.393 133.518 201.588C145.921 207.153 166.359 207.797 179.466 202.843C183.368 201.368 187.261 198.652 191.325 198.645H191.327Z" fill="url(#paint0_linear_3625_17699)"/>
<path d="M130.486 208.775C138.078 213.45 160.635 220.754 186.71 209.573L187.387 209.283C188.736 208.704 190.228 209.729 190.173 211.196L190.023 215.2L189.783 216.737C161.072 229.049 135.848 221.234 126.397 215.413C125.991 215.141 125.783 214.655 125.867 214.173L126.66 209.636C126.903 208.244 128.475 207.536 129.678 208.278L130.486 208.775Z" fill="url(#paint1_linear_3625_17699)"/>
<path d="M127.966 211.801C128.128 211.54 128.471 211.458 128.733 211.62C137.122 216.786 160.821 224.31 188.025 212.644C188.308 212.523 188.636 212.653 188.757 212.935C188.878 213.218 188.747 213.546 188.464 213.667C160.884 225.495 136.802 217.898 128.148 212.568C127.886 212.406 127.805 212.063 127.966 211.801Z" fill="#D40A1C"/>
<defs>
<linearGradient id="paint0_linear_3625_17699" x1="157.968" y1="230.683" x2="158.032" y2="205.91" gradientUnits="userSpaceOnUse">
<stop stop-color="#DB1627"/>
<stop offset="1" stop-color="#FF384A"/>
</linearGradient>
<linearGradient id="paint1_linear_3625_17699" x1="156.69" y1="215.733" x2="156.438" y2="223.48" gradientUnits="userSpaceOnUse">
<stop stop-color="#E52032"/>
<stop offset="1" stop-color="#E9293E"/>
</linearGradient>
</defs>
</svg>
