<svg width="228" height="40" viewBox="0 0 228 40" fill="none" xmlns="http://www.w3.org/2000/svg">
<rect width="228" height="40" rx="20" fill="#1BB842"/>
<path d="M25.4875 26.5L21.9498 14.1364H24.8053L26.8518 22.7269H26.9545L29.2123 14.1364H31.6572L33.909 22.745H34.0177L36.0642 14.1364H38.9197L35.382 26.5H32.8344L30.48 18.4165H30.3834L28.0351 26.5H25.4875ZM40.2704 26.5V17.2273H42.8422V26.5H40.2704ZM41.5623 16.032C41.18 16.032 40.852 15.9052 40.5783 15.6516C40.3087 15.3941 40.1738 15.0862 40.1738 14.728C40.1738 14.3738 40.3087 14.07 40.5783 13.8164C40.852 13.5588 41.18 13.43 41.5623 13.43C41.9447 13.43 42.2707 13.5588 42.5403 13.8164C42.814 14.07 42.9508 14.3738 42.9508 14.728C42.9508 15.0862 42.814 15.3941 42.5403 15.6516C42.2707 15.9052 41.9447 16.032 41.5623 16.032ZM47.474 21.1392V26.5H44.9023V17.2273H47.3532V18.8633H47.4619C47.6672 18.324 48.0113 17.8974 48.4942 17.5835C48.9772 17.2655 49.5628 17.1065 50.251 17.1065C50.8949 17.1065 51.4564 17.2474 51.9353 17.5291C52.4142 17.8108 52.7865 18.2133 53.0521 18.7365C53.3177 19.2557 53.4506 19.8755 53.4506 20.5959V26.5H50.8788V21.0547C50.8828 20.4872 50.738 20.0445 50.4442 19.7266C50.1504 19.4046 49.7459 19.2436 49.2307 19.2436C48.8846 19.2436 48.5787 19.3181 48.3131 19.467C48.0515 19.6159 47.8463 19.8332 47.6974 20.119C47.5525 20.4007 47.478 20.7408 47.474 21.1392ZM64.7668 14.1364V26.5H62.1528V16.6175H62.0803L59.249 18.3924V16.0742L62.3097 14.1364H64.7668ZM72.5529 26.7717C71.5146 26.7676 70.6211 26.5121 69.8725 26.005C69.128 25.4979 68.5545 24.7634 68.152 23.8015C67.7536 22.8396 67.5563 21.6825 67.5604 20.3303C67.5604 18.982 67.7596 17.833 68.158 16.8832C68.5605 15.9334 69.134 15.2109 69.8786 14.7159C70.6271 14.2169 71.5186 13.9673 72.5529 13.9673C73.5872 13.9673 74.4767 14.2169 75.2212 14.7159C75.9698 15.215 76.5453 15.9394 76.9478 16.8892C77.3503 17.835 77.5495 18.982 77.5455 20.3303C77.5455 21.6866 77.3442 22.8456 76.9418 23.8075C76.5433 24.7694 75.9718 25.5039 75.2273 26.011C74.4827 26.5181 73.5913 26.7717 72.5529 26.7717ZM72.5529 24.6044C73.2612 24.6044 73.8267 24.2482 74.2493 23.5359C74.6719 22.8235 74.8812 21.755 74.8771 20.3303C74.8771 19.3925 74.7805 18.6117 74.5874 17.9879C74.3982 17.3641 74.1286 16.8952 73.7784 16.5813C73.4323 16.2674 73.0238 16.1104 72.5529 16.1104C71.8486 16.1104 71.2852 16.4626 70.8626 17.1669C70.44 17.8712 70.2267 18.9257 70.2227 20.3303C70.2227 21.2801 70.3172 22.0729 70.5064 22.7088C70.6996 23.3407 70.9712 23.8156 71.3214 24.1335C71.6715 24.4474 72.082 24.6044 72.5529 24.6044ZM81.7306 24.8097L81.6642 25.4737C81.6118 26.005 81.5112 26.5342 81.3623 27.0614C81.2174 27.5927 81.0645 28.0736 80.9035 28.5043C80.7465 28.9349 80.6198 29.273 80.5232 29.5185H78.857C78.9173 29.281 78.9999 28.949 79.1045 28.5224C79.2091 28.0998 79.3077 27.6249 79.4003 27.0977C79.4929 26.5704 79.5512 26.0331 79.5754 25.4858L79.6056 24.8097H81.7306ZM88.4074 26.7717C87.3691 26.7676 86.4756 26.5121 85.727 26.005C84.9825 25.4979 84.4089 24.7634 84.0065 23.8015C83.608 22.8396 83.4108 21.6825 83.4149 20.3303C83.4149 18.982 83.6141 17.833 84.0125 16.8832C84.415 15.9334 84.9885 15.2109 85.733 14.7159C86.4816 14.2169 87.3731 13.9673 88.4074 13.9673C89.4417 13.9673 90.3312 14.2169 91.0757 14.7159C91.8243 15.215 92.3998 15.9394 92.8023 16.8892C93.2048 17.835 93.404 18.982 93.3999 20.3303C93.3999 21.6866 93.1987 22.8456 92.7963 23.8075C92.3978 24.7694 91.8263 25.5039 91.0818 26.011C90.3372 26.5181 89.4458 26.7717 88.4074 26.7717ZM88.4074 24.6044C89.1157 24.6044 89.6812 24.2482 90.1038 23.5359C90.5264 22.8235 90.7356 21.755 90.7316 20.3303C90.7316 19.3925 90.635 18.6117 90.4419 17.9879C90.2527 17.3641 89.983 16.8952 89.6329 16.5813C89.2868 16.2674 88.8783 16.1104 88.4074 16.1104C87.7031 16.1104 87.1396 16.4626 86.7171 17.1669C86.2945 17.8712 86.0812 18.9257 86.0771 20.3303C86.0771 21.2801 86.1717 22.0729 86.3609 22.7088C86.5541 23.3407 86.8257 23.8156 87.1759 24.1335C87.526 24.4474 87.9365 24.6044 88.4074 24.6044ZM100.112 26.7717C99.0732 26.7676 98.1797 26.5121 97.4311 26.005C96.6866 25.4979 96.113 24.7634 95.7106 23.8015C95.3121 22.8396 95.1149 21.6825 95.119 20.3303C95.119 18.982 95.3182 17.833 95.7166 16.8832C96.1191 15.9334 96.6926 15.2109 97.4371 14.7159C98.1857 14.2169 99.0772 13.9673 100.112 13.9673C101.146 13.9673 102.035 14.2169 102.78 14.7159C103.528 15.215 104.104 15.9394 104.506 16.8892C104.909 17.835 105.108 18.982 105.104 20.3303C105.104 21.6866 104.903 22.8456 104.5 23.8075C104.102 24.7694 103.53 25.5039 102.786 26.011C102.041 26.5181 101.15 26.7717 100.112 26.7717ZM100.112 24.6044C100.82 24.6044 101.385 24.2482 101.808 23.5359C102.23 22.8235 102.44 21.755 102.436 20.3303C102.436 19.3925 102.339 18.6117 102.146 17.9879C101.957 17.3641 101.687 16.8952 101.337 16.5813C100.991 16.2674 100.582 16.1104 100.112 16.1104C99.4072 16.1104 98.8438 16.4626 98.4212 17.1669C97.9986 17.8712 97.7853 18.9257 97.7812 20.3303C97.7812 21.2801 97.8758 22.0729 98.065 22.7088C98.2582 23.3407 98.5298 23.8156 98.88 24.1335C99.2301 24.4474 99.6406 24.6044 100.112 24.6044ZM111.816 26.7717C110.777 26.7676 109.884 26.5121 109.135 26.005C108.391 25.4979 107.817 24.7634 107.415 23.8015C107.016 22.8396 106.819 21.6825 106.823 20.3303C106.823 18.982 107.022 17.833 107.421 16.8832C107.823 15.9334 108.397 15.2109 109.141 14.7159C109.89 14.2169 110.781 13.9673 111.816 13.9673C112.85 13.9673 113.739 14.2169 114.484 14.7159C115.233 15.215 115.808 15.9394 116.21 16.8892C116.613 17.835 116.812 18.982 116.808 20.3303C116.808 21.6866 116.607 22.8456 116.204 23.8075C115.806 24.7694 115.235 25.5039 114.49 26.011C113.745 26.5181 112.854 26.7717 111.816 26.7717ZM111.816 24.6044C112.524 24.6044 113.089 24.2482 113.512 23.5359C113.935 22.8235 114.144 21.755 114.14 20.3303C114.14 19.3925 114.043 18.6117 113.85 17.9879C113.661 17.3641 113.391 16.8952 113.041 16.5813C112.695 16.2674 112.286 16.1104 111.816 16.1104C111.111 16.1104 110.548 16.4626 110.125 17.1669C109.703 17.8712 109.489 18.9257 109.485 20.3303C109.485 21.2801 109.58 22.0729 109.769 22.7088C109.962 23.3407 110.234 23.8156 110.584 24.1335C110.934 24.4474 111.345 24.6044 111.816 24.6044ZM126.381 14.1364H128.995V22.1655C128.995 23.067 128.78 23.8558 128.349 24.532C127.923 25.2081 127.325 25.7353 126.556 26.1136C125.788 26.4879 124.892 26.6751 123.87 26.6751C122.844 26.6751 121.946 26.4879 121.177 26.1136C120.409 25.7353 119.811 25.2081 119.384 24.532C118.958 23.8558 118.744 23.067 118.744 22.1655V14.1364H121.358V21.9421C121.358 22.413 121.461 22.8316 121.666 23.1978C121.876 23.564 122.169 23.8518 122.548 24.0611C122.926 24.2704 123.367 24.375 123.87 24.375C124.377 24.375 124.818 24.2704 125.192 24.0611C125.57 23.8518 125.862 23.564 126.067 23.1978C126.277 22.8316 126.381 22.413 126.381 21.9421V14.1364ZM137.853 17.6921C137.805 17.2051 137.597 16.8268 137.231 16.5572C136.865 16.2875 136.368 16.1527 135.74 16.1527C135.313 16.1527 134.953 16.2131 134.659 16.3338C134.366 16.4505 134.14 16.6135 133.983 16.8228C133.83 17.0321 133.754 17.2695 133.754 17.5352C133.746 17.7565 133.792 17.9497 133.893 18.1147C133.997 18.2797 134.14 18.4226 134.321 18.5433C134.502 18.66 134.712 18.7627 134.949 18.8512C135.187 18.9357 135.44 19.0082 135.71 19.0685L136.821 19.3342C137.36 19.4549 137.855 19.6159 138.306 19.8171C138.756 20.0183 139.147 20.2659 139.477 20.5597C139.807 20.8535 140.062 21.1996 140.244 21.598C140.429 21.9964 140.523 22.4532 140.527 22.9684C140.523 23.725 140.33 24.381 139.948 24.9364C139.569 25.4878 139.022 25.9164 138.306 26.2223C137.593 26.5241 136.734 26.6751 135.728 26.6751C134.73 26.6751 133.86 26.5221 133.12 26.2163C132.383 25.9104 131.808 25.4576 131.393 24.858C130.983 24.2543 130.768 23.5077 130.747 22.6183H133.277C133.305 23.0328 133.424 23.3789 133.633 23.6566C133.846 23.9303 134.13 24.1375 134.484 24.2784C134.842 24.4152 135.247 24.4837 135.698 24.4837C136.14 24.4837 136.525 24.4193 136.851 24.2905C137.181 24.1617 137.436 23.9826 137.617 23.7532C137.799 23.5238 137.889 23.2602 137.889 22.9624C137.889 22.6847 137.807 22.4512 137.642 22.2621C137.481 22.0729 137.243 21.9119 136.929 21.7791C136.619 21.6463 136.239 21.5256 135.788 21.4169L134.442 21.0788C133.4 20.8253 132.577 20.4289 131.973 19.8896C131.369 19.3503 131.069 18.6238 131.073 17.7102C131.069 16.9616 131.269 16.3076 131.671 15.7482C132.078 15.1888 132.635 14.7521 133.343 14.4382C134.052 14.1243 134.857 13.9673 135.758 13.9673C136.676 13.9673 137.477 14.1243 138.161 14.4382C138.849 14.7521 139.384 15.1888 139.767 15.7482C140.149 16.3076 140.346 16.9556 140.358 17.6921H137.853ZM146.668 26.5H142.286V14.1364H146.705C147.948 14.1364 149.019 14.3839 149.916 14.8789C150.814 15.3699 151.504 16.0762 151.987 16.9979C152.474 17.9195 152.717 19.0223 152.717 20.3061C152.717 21.594 152.474 22.7008 151.987 23.6264C151.504 24.5521 150.81 25.2624 149.904 25.7575C149.003 26.2525 147.924 26.5 146.668 26.5ZM144.9 24.2603H146.56C147.332 24.2603 147.982 24.1235 148.51 23.8498C149.041 23.5721 149.439 23.1435 149.705 22.5639C149.975 21.9804 150.109 21.2277 150.109 20.3061C150.109 19.3925 149.975 18.646 149.705 18.0664C149.439 17.4869 149.043 17.0603 148.516 16.7866C147.988 16.5129 147.338 16.3761 146.566 16.3761H144.9V24.2603ZM153.618 16.2915V14.1364H163.772V16.2915H159.987V26.5H157.403V16.2915H153.618Z" fill="white"/>
<rect x="174.5" y="4" width="32" height="32" rx="16" fill="#FED94A"/>
<path d="M187.562 18.6016C187.497 18.3769 187.406 18.1784 187.289 18.006C187.172 17.8306 187.029 17.6829 186.86 17.5629C186.694 17.4397 186.503 17.3459 186.287 17.2812C186.075 17.2166 185.84 17.1843 185.581 17.1843C185.098 17.1843 184.673 17.3043 184.307 17.5444C183.944 17.7844 183.661 18.1338 183.458 18.5923C183.254 19.0478 183.153 19.6049 183.153 20.2635C183.153 20.9221 183.253 21.4822 183.453 21.9439C183.653 22.4055 183.936 22.7579 184.302 23.0011C184.669 23.2411 185.101 23.3612 185.6 23.3612C186.052 23.3612 186.438 23.2811 186.758 23.1211C187.081 22.958 187.328 22.7287 187.497 22.4332C187.669 22.1378 187.756 21.7885 187.756 21.3853L188.162 21.4453H185.724V19.9403H189.681V21.1314C189.681 21.9624 189.505 22.6764 189.154 23.2734C188.803 23.8674 188.32 24.326 187.705 24.6491C187.089 24.9692 186.384 25.1293 185.59 25.1293C184.704 25.1293 183.925 24.9338 183.254 24.543C182.584 24.149 182.06 23.5904 181.685 22.8672C181.312 22.1409 181.126 21.2791 181.126 20.282C181.126 19.5156 181.237 18.8324 181.459 18.2322C181.683 17.629 181.997 17.1181 182.4 16.6996C182.804 16.281 183.273 15.9625 183.808 15.744C184.344 15.5254 184.924 15.4162 185.549 15.4162C186.084 15.4162 186.583 15.4947 187.045 15.6516C187.506 15.8055 187.916 16.024 188.273 16.3072C188.633 16.5903 188.927 16.9273 189.154 17.3182C189.382 17.706 189.528 18.1338 189.593 18.6016H187.562ZM199.87 20.2727C199.87 21.3037 199.675 22.1809 199.284 22.9041C198.896 23.6274 198.367 24.1798 197.696 24.5614C197.028 24.94 196.277 25.1293 195.443 25.1293C194.603 25.1293 193.849 24.9384 193.181 24.5568C192.513 24.1752 191.985 23.6228 191.598 22.8995C191.21 22.1763 191.016 21.3007 191.016 20.2727C191.016 19.2417 191.21 18.3646 191.598 17.6413C191.985 16.9181 192.513 16.3672 193.181 15.9886C193.849 15.607 194.603 15.4162 195.443 15.4162C196.277 15.4162 197.028 15.607 197.696 15.9886C198.367 16.3672 198.896 16.9181 199.284 17.6413C199.675 18.3646 199.87 19.2417 199.87 20.2727ZM197.844 20.2727C197.844 19.6049 197.744 19.0417 197.544 18.5831C197.347 18.1245 197.068 17.7768 196.708 17.5398C196.348 17.3028 195.926 17.1843 195.443 17.1843C194.96 17.1843 194.538 17.3028 194.178 17.5398C193.818 17.7768 193.538 18.1245 193.338 18.5831C193.141 19.0417 193.043 19.6049 193.043 20.2727C193.043 20.9406 193.141 21.5038 193.338 21.9624C193.538 22.4209 193.818 22.7687 194.178 23.0057C194.538 23.2427 194.96 23.3612 195.443 23.3612C195.926 23.3612 196.348 23.2427 196.708 23.0057C197.068 22.7687 197.347 22.4209 197.544 21.9624C197.744 21.5038 197.844 20.9406 197.844 20.2727Z" fill="#173E38"/>
</svg>
