<svg width="193" height="49" viewBox="0 0 193 49" fill="none" xmlns="http://www.w3.org/2000/svg">
<path d="M10.7872 7.91294C13.7033 3.90644 18.7858 1.08795 23.6542 0.319583C26.1656 -0.0672482 28.7288 0.0469698 31.1958 0.655644C33.6628 1.26432 35.9848 2.35539 38.0276 3.86589C39.6326 5.03741 41.0626 6.43128 42.2746 8.00558C43.2195 9.15175 44.0391 10.3956 44.7195 11.716C44.8723 12.0177 45.6642 14.0233 45.784 14.1051C45.716 14.2742 46.1994 15.696 46.2791 16.0411C46.462 16.8515 46.603 17.6707 46.7015 18.4956C46.9831 20.9202 46.8116 23.376 46.1957 25.7379C45.5848 28.052 44.4839 30.3873 42.968 32.2293C41.9147 33.509 41.4828 34.6212 42.114 36.2691C42.4336 37.1036 43.2997 37.8146 44.0997 38.1785C45.5619 38.8084 47.568 38.5293 48.2066 36.8835C48.5167 36.1192 48.3283 35.1132 47.4443 34.8495C46.7025 34.6284 46.6201 35.6714 46.2208 35.9771C45.7255 36.3562 44.9242 36.1755 44.609 35.645C43.7841 34.2568 44.5741 32.6019 45.8691 31.8471C48.2416 30.5007 50.9086 31.6164 52.2036 33.8677C53.0688 35.3975 53.2996 37.2053 52.8468 38.9033C52.3493 40.7353 51.1287 42.2304 49.4769 43.1548C47.2564 44.3973 44.6394 44.498 42.2177 43.8276C41.3903 43.5985 40.6406 43.2307 39.8695 42.8687C40.5197 43.8476 41.186 45.0863 40.8589 46.2202C39.842 49.7461 35.1438 49.0949 32.9868 47.048C31.907 46.0234 31.5644 45.5012 30.8342 44.3448C30.9698 45.3905 30.932 46.2948 30.2475 47.1987C28.2377 49.8523 22.7343 49.1384 22.3549 45.5097C22.3192 45.1685 22.3341 44.7369 22.348 44.383C21.0087 46.4747 19.7027 48.0024 17.1613 48.605C15.1855 49.0735 12.6605 48.3778 12.2055 46.1491C11.9114 44.6938 12.5164 43.7166 13.2675 42.5364C12.4766 43.0467 11.7759 43.302 10.9177 43.6099C6.47219 45.2053 1.13974 43.2712 0.128101 38.3101C-0.362871 35.9027 0.573125 33.3791 2.66679 31.9938C4.4331 30.8447 7.0332 30.9918 8.23794 32.8669C8.80669 33.7841 9.02197 35.3036 7.95519 35.9543C7.4836 36.2519 6.80637 36.2607 6.56431 35.6726C6.2829 34.9842 5.93426 34.4703 5.16558 34.9912C4.40654 35.5057 4.55951 36.8503 5.08567 37.4512C7.0462 39.6899 10.6826 37.8637 10.9642 35.1545C11.1661 33.2132 10.1257 32.48 9.22123 30.9409C8.58871 29.8839 8.14918 29.0618 7.6749 27.9236C6.9152 26.0564 6.46651 24.0776 6.34667 22.0655C6.21813 20.091 6.38003 18.1085 6.82722 16.181C6.95655 15.6282 7.32884 14.614 7.39753 14.1504C7.54188 13.987 8.00237 12.6928 8.13898 12.3793C8.83952 10.7725 9.76072 9.32432 10.7872 7.91294Z" fill="url(#paint0_linear_3597_17653)"/>
<path d="M18.3756 21.0054L18.4229 20.9981C19.8825 20.8422 21.3469 21.2459 22.5202 22.1277C23.2083 22.6474 23.7864 23.2984 24.2211 24.0429C24.6558 24.7875 24.9383 25.6109 25.0524 26.4654C25.2872 28.212 24.8598 30.1122 23.7807 31.5186C23.3146 32.1368 22.7302 32.6561 22.0614 33.0462C21.3927 33.4364 20.6529 33.6896 19.8853 33.7911C14.7914 34.4326 11.7103 28.7746 13.7175 24.4605C14.6582 22.4385 16.2072 21.3446 18.3756 21.0054Z" fill="#E9E8F2"/>
<path d="M19.5311 24.013C20.6425 23.9189 21.7799 24.226 22.5918 25.0041C25.2233 27.5257 23.7084 32.0004 19.9675 32.1392C19.5073 32.1247 19.0537 32.0255 18.6294 31.8466C16.5194 30.9684 15.6681 28.5675 16.5158 26.4929C16.8562 26.5309 18.1286 26.7177 18.1054 25.9685C18.0964 25.6785 17.6119 25.3202 17.3588 25.1622C18.1655 24.4561 18.4778 24.2142 19.5311 24.013Z" fill="#010130"/>
<path d="M35.9223 23.9491C35.9761 23.946 36.0498 23.944 36.1017 23.9569C38.67 24.5976 39.6812 27.3299 39.2553 29.7025C39.1404 30.3657 38.8943 30.9992 38.5312 31.566C38.1681 32.1328 37.6955 32.6214 37.141 33.0033C35.8748 33.8758 34.6323 33.9906 33.1595 33.7241C33.0168 33.6804 32.8706 33.6348 32.7309 33.5824C32.1053 33.3485 31.5324 32.9925 31.0458 32.5352C30.5591 32.0778 30.1684 31.5283 29.8963 30.9185C29.3939 29.7657 29.2951 27.775 30.3036 26.8821C30.8395 26.4076 31.9738 25.9165 32.6406 25.5727C33.7178 25.0175 34.8165 24.4356 35.9223 23.9491Z" fill="#E9E8F2"/>
<path d="M34.2313 26.5244C34.802 26.6186 35.1074 26.985 35.422 27.415C35.144 27.6254 34.6423 27.9861 35.0242 28.3893C35.249 28.6267 35.6538 28.5631 35.9574 28.5465C36.3615 30.9307 34.7027 32.847 32.237 32.2558C30.5645 31.5932 30.1255 30.263 30.29 28.5879C31.3004 28.6234 31.7254 28.2538 30.8084 27.4792C31.6288 26.8513 33.1968 26.6386 34.2313 26.5244Z" fill="#010130"/>
<path d="M42.2734 8.0056C43.0405 7.56378 43.6653 7.20072 44.2989 6.63702C45.9354 5.18083 46.4035 3.24586 46.1313 1.13759C46.0486 0.497494 46.549 -0.240289 47.2733 0.0753916C48.2958 0.475089 49.1391 1.83617 49.5715 2.75767C50.0694 3.79382 50.3544 4.91932 50.4094 6.06752C50.4644 7.21573 50.2884 8.36329 49.8919 9.44229C49.2138 11.2664 47.6172 13.2559 45.8411 14.0788L45.7829 14.1051C45.6631 14.0234 44.8712 12.0177 44.7183 11.716C44.038 10.3956 43.2184 9.15177 42.2734 8.0056Z" fill="#22BCD3"/>
<path d="M7.39625 14.1504C3.62616 12.3241 1.7554 7.7353 3.10538 3.83052C3.48439 2.73449 4.89085 -0.289007 6.42429 0.0801085C7.08706 0.239629 6.84846 2.18479 6.88152 2.75678C6.91032 3.27975 7.01294 3.79602 7.18635 4.29026C7.83937 6.13898 9.08356 7.10237 10.7859 7.91297C9.75944 9.32434 8.83824 10.7726 8.1377 12.3793C8.00109 12.6929 7.5406 13.9871 7.39625 14.1504Z" fill="#22BCD3"/>
<path d="M34.6794 34.3303C35.5298 34.3288 35.9365 34.641 36.4653 35.1247C37.5625 36.2884 37.5442 37.4683 36.8673 38.841C36.5123 39.4118 36.272 39.6757 35.7098 40.0563C34.8607 40.6311 33.9371 40.9979 32.9689 41.3137C29.506 42.4431 25.3617 42.4751 21.7985 41.7925C20.1804 41.4825 17.9883 40.8157 16.7741 39.6659C16.5067 39.4126 16.3161 39.1315 16.1111 38.8293C15.5297 37.5249 15.5774 36.3222 16.5634 35.221C17.1256 34.7209 17.7683 34.352 18.5441 34.3465C19.2827 34.3413 19.8901 34.7579 20.5416 35.0502C23.575 36.411 28.5734 36.5686 31.7788 35.3569C32.733 34.9962 33.6851 34.3321 34.6791 34.3303H34.6794Z" fill="url(#paint1_linear_3597_17653)"/>
<path d="M19.8003 36.8076C21.6569 37.951 27.1736 39.7373 33.5503 37.0028C33.9573 36.8283 34.4072 37.1372 34.3906 37.5797L34.3607 38.379L34.3019 38.7548C27.2805 41.7658 21.1117 39.8545 18.8004 38.4309C18.7009 38.3645 18.65 38.2457 18.6706 38.1279L18.8246 37.2468C18.9032 36.7967 19.4112 36.568 19.8003 36.8076Z" fill="url(#paint2_linear_3597_17653)"/>
<path d="M19.1804 37.5478C19.2199 37.4839 19.3039 37.464 19.3679 37.5034C21.4194 38.7669 27.2155 40.6069 33.8684 37.7539C33.9375 37.7243 34.0178 37.7561 34.0474 37.8252C34.077 37.8943 34.045 37.9745 33.9759 38.0042C27.2307 40.8967 21.3413 39.0389 19.2248 37.7353C19.1609 37.6958 19.141 37.6118 19.1804 37.5478Z" fill="#D40A1C"/>
<path d="M192.082 36.1299C191.846 36.1728 191.492 36.2265 191.02 36.2908C190.569 36.3767 190.108 36.4196 189.636 36.4196C189.163 36.4196 188.734 36.3874 188.348 36.323C187.983 36.2586 187.672 36.1299 187.414 35.9367C187.157 35.7436 186.953 35.486 186.803 35.1641C186.674 34.8207 186.609 34.3807 186.609 33.8441V20.7414C186.845 20.6985 187.189 20.6448 187.64 20.5804C188.112 20.4946 188.584 20.4517 189.056 20.4517C189.528 20.4517 189.947 20.4839 190.312 20.5482C190.698 20.6126 191.02 20.7414 191.277 20.9346C191.535 21.1277 191.728 21.396 191.857 21.7394C192.007 22.0613 192.082 22.4906 192.082 23.0271V36.1299Z" fill="white"/>
<path d="M183.761 16.6528C183.912 16.8889 184.04 17.2109 184.148 17.6186C184.276 18.005 184.341 18.4127 184.341 18.842C184.341 19.679 184.158 20.28 183.793 20.6448C183.45 20.9882 182.978 21.1599 182.377 21.1599H175.616V24.7978H182.667C182.838 25.0339 182.978 25.3451 183.085 25.7314C183.214 26.1177 183.278 26.5255 183.278 26.9547C183.278 27.7703 183.096 28.3605 182.731 28.7254C182.388 29.0688 181.916 29.2405 181.315 29.2405H175.681V36.0333C175.445 36.0977 175.069 36.1621 174.554 36.2265C174.06 36.2908 173.567 36.323 173.073 36.323C172.579 36.323 172.139 36.2801 171.753 36.1943C171.388 36.1299 171.077 36.0011 170.82 35.8079C170.562 35.6148 170.369 35.3465 170.24 35.0031C170.111 34.6597 170.047 34.209 170.047 33.651V19.6468C170.047 18.7239 170.315 17.9942 170.852 17.4577C171.388 16.9211 172.118 16.6528 173.041 16.6528H183.761Z" fill="white"/>
<path d="M162.213 30.7857C162.213 31.3437 162.385 31.7408 162.728 31.9769C163.093 32.2129 163.598 32.331 164.241 32.331C164.563 32.331 164.896 32.3095 165.239 32.2666C165.583 32.2022 165.883 32.1271 166.141 32.0412C166.334 32.2773 166.495 32.5456 166.624 32.8461C166.774 33.1251 166.849 33.4685 166.849 33.8763C166.849 34.6918 166.538 35.3572 165.915 35.8723C165.314 36.3874 164.241 36.6449 162.696 36.6449C160.807 36.6449 159.348 36.2157 158.318 35.3572C157.309 34.4987 156.805 33.1036 156.805 31.172V17.3932C157.041 17.3288 157.373 17.2645 157.803 17.2001C158.253 17.1142 158.726 17.0713 159.219 17.0713C160.164 17.0713 160.893 17.243 161.408 17.5864C161.945 17.9083 162.213 18.6058 162.213 19.679V21.7393H166.431C166.559 21.9754 166.677 22.2759 166.785 22.6408C166.913 22.9842 166.978 23.3705 166.978 23.7997C166.978 24.5509 166.806 25.0982 166.463 25.4416C166.141 25.7635 165.701 25.9245 165.143 25.9245H162.213V30.7857Z" fill="white"/>
<path d="M149.81 24.3471C149.273 24.3471 148.758 24.433 148.264 24.6047C147.792 24.7764 147.374 25.0339 147.009 25.3773C146.665 25.6993 146.386 26.107 146.172 26.6007C145.957 27.0943 145.85 27.6738 145.85 28.3391C145.85 29.6698 146.225 30.6678 146.977 31.3331C147.749 31.9984 148.683 32.3311 149.777 32.3311C150.421 32.3311 150.979 32.256 151.451 32.1057C151.924 31.9555 152.342 31.7945 152.707 31.6228C153.136 31.9233 153.458 32.256 153.673 32.6208C153.887 32.9642 153.995 33.3828 153.995 33.8764C153.995 34.7563 153.576 35.4431 152.739 35.9368C151.902 36.4089 150.743 36.645 149.262 36.645C147.91 36.645 146.687 36.4519 145.592 36.0655C144.498 35.6578 143.553 35.0997 142.759 34.3915C141.987 33.6618 141.386 32.7925 140.956 31.7838C140.527 30.7751 140.312 29.659 140.312 28.4357C140.312 27.0192 140.538 25.7851 140.989 24.7334C141.461 23.6603 142.094 22.7804 142.888 22.0936C143.682 21.4068 144.594 20.8917 145.624 20.5483C146.676 20.2049 147.781 20.0332 148.94 20.0332C150.486 20.0332 151.677 20.3122 152.514 20.8702C153.351 21.4283 153.769 22.1472 153.769 23.0272C153.769 23.435 153.673 23.8213 153.48 24.1862C153.286 24.5296 153.061 24.83 152.804 25.0876C152.439 24.9159 151.999 24.7549 151.484 24.6047C150.969 24.433 150.411 24.3471 149.81 24.3471Z" fill="white"/>
<path d="M137.5 36.1299C137.264 36.1728 136.91 36.2265 136.438 36.2908C135.987 36.3767 135.526 36.4196 135.054 36.4196C134.581 36.4196 134.152 36.3874 133.766 36.323C133.401 36.2586 133.09 36.1299 132.832 35.9367C132.575 35.7436 132.371 35.486 132.221 35.1641C132.092 34.8207 132.027 34.3807 132.027 33.8441V20.7414C132.263 20.6985 132.607 20.6448 133.058 20.5804C133.53 20.4946 134.002 20.4517 134.474 20.4517C134.946 20.4517 135.365 20.4839 135.73 20.5482C136.116 20.6126 136.438 20.7414 136.695 20.9346C136.953 21.1277 137.146 21.396 137.275 21.7394C137.425 22.0613 137.5 22.4906 137.5 23.0271V36.1299Z" fill="white"/>
<path d="M134.077 12.1759C135.735 11.8507 137.341 12.938 137.653 14.5973C137.964 16.2567 136.864 17.8523 135.201 18.1507C133.557 18.446 131.982 17.3611 131.674 15.7204C131.365 14.0798 132.438 12.4975 134.077 12.1759Z" fill="#16DAEB"/>
<path d="M188.761 12.1759C190.419 11.8507 192.024 12.938 192.336 14.5973C192.648 16.2567 191.547 17.8523 189.885 18.1507C188.241 18.446 186.666 17.3611 186.358 15.7204C186.049 14.0798 187.122 12.4975 188.761 12.1759Z" fill="#16DAEB"/>
<path d="M112.363 28.3389C112.363 26.9224 112.578 25.6991 113.007 24.6689C113.436 23.6172 114.027 22.748 114.778 22.0612C115.55 21.3744 116.441 20.8701 117.45 20.5481C118.48 20.2047 119.585 20.033 120.766 20.033C121.195 20.033 121.614 20.076 122.021 20.1618C122.429 20.2262 122.762 20.312 123.019 20.4194V15.204C123.234 15.1396 123.577 15.0752 124.05 15.0109C124.522 14.925 125.005 14.8821 125.498 14.8821C125.97 14.8821 126.389 14.9143 126.754 14.9787C127.14 15.043 127.462 15.1718 127.72 15.365C127.977 15.5581 128.17 15.8264 128.299 16.1698C128.428 16.4918 128.492 16.921 128.492 17.4576V32.7173C128.492 33.726 128.02 34.5308 127.076 35.1318C126.453 35.5395 125.648 35.8937 124.661 36.1941C123.674 36.5161 122.536 36.677 121.249 36.677C119.854 36.677 118.598 36.4839 117.482 36.0976C116.387 35.7112 115.454 35.1532 114.681 34.4235C113.93 33.6938 113.351 32.8246 112.943 31.8158C112.556 30.7856 112.363 29.6267 112.363 28.3389ZM121.506 24.3148C120.347 24.3148 119.457 24.6474 118.834 25.3128C118.212 25.9781 117.901 26.9868 117.901 28.3389C117.901 29.6696 118.19 30.6783 118.77 31.3651C119.349 32.0305 120.186 32.3631 121.281 32.3631C121.667 32.3631 122.011 32.3095 122.311 32.2022C122.633 32.0734 122.88 31.9339 123.052 31.7836V24.7011C122.622 24.4435 122.107 24.3148 121.506 24.3148Z" fill="white"/>
<path d="M103.645 36.6772C102.379 36.6772 101.198 36.5055 100.104 36.1621C99.0307 35.7973 98.0864 35.2607 97.2708 34.5525C96.4767 33.8442 95.8435 32.9535 95.3714 31.8804C94.9207 30.8073 94.6953 29.5517 94.6953 28.1138C94.6953 26.6972 94.9207 25.4846 95.3714 24.4759C95.8435 23.4457 96.4552 22.6087 97.2064 21.9648C97.9576 21.2995 98.8161 20.8166 99.7819 20.5161C100.748 20.1942 101.735 20.0332 102.744 20.0332C103.881 20.0332 104.911 20.2049 105.834 20.5483C106.779 20.8917 107.583 21.3639 108.249 21.9648C108.936 22.5658 109.461 23.2847 109.826 24.1218C110.213 24.9588 110.406 25.8709 110.406 26.8582C110.406 27.5879 110.202 28.146 109.794 28.5323C109.386 28.9186 108.818 29.1654 108.088 29.2727L100.136 30.4639C100.372 31.1721 100.855 31.7087 101.585 32.0736C102.314 32.4169 103.151 32.5887 104.096 32.5887C104.976 32.5887 105.802 32.4813 106.575 32.2667C107.369 32.0306 108.013 31.7624 108.506 31.4619C108.85 31.6765 109.139 31.977 109.376 32.3633C109.612 32.7496 109.73 33.1574 109.73 33.5866C109.73 34.5524 109.279 35.2714 108.378 35.7436C107.691 36.1085 106.918 36.3553 106.06 36.4841C105.201 36.6128 104.396 36.6772 103.645 36.6772ZM102.744 24.0252C102.229 24.0252 101.778 24.111 101.392 24.2827C101.027 24.4544 100.726 24.6798 100.49 24.9588C100.254 25.2163 100.072 25.5168 99.9428 25.8602C99.8355 26.1822 99.7711 26.5148 99.7497 26.8582L105.255 25.9568C105.19 25.5276 104.954 25.0983 104.547 24.6691C104.139 24.2398 103.538 24.0252 102.744 24.0252Z" fill="white"/>
<path d="M88.2034 36.1297C87.9887 36.1941 87.6453 36.2585 87.1732 36.3229C86.7225 36.3873 86.2503 36.4195 85.7567 36.4195C85.2845 36.4195 84.8552 36.3873 84.4689 36.3229C84.1041 36.2585 83.7929 36.1297 83.5353 35.9366C83.2778 35.7434 83.0739 35.4858 82.9236 35.1639C82.7949 34.8205 82.7305 34.3805 82.7305 33.844V24.1859C82.7305 23.6923 82.8163 23.2738 82.988 22.9304C83.1812 22.5655 83.4495 22.2436 83.7929 21.9646C84.1362 21.6856 84.5548 21.4388 85.0484 21.2241C85.5635 20.9881 86.1108 20.7842 86.6903 20.6125C87.2697 20.4408 87.8707 20.312 88.4931 20.2262C89.1155 20.1188 89.7379 20.0652 90.3603 20.0652C91.3905 20.0652 92.2061 20.2691 92.807 20.6769C93.408 21.0632 93.7084 21.707 93.7084 22.6085C93.7084 22.9089 93.6655 23.2094 93.5797 23.5099C93.4938 23.7889 93.3865 24.0464 93.2577 24.2825C92.807 24.2825 92.3456 24.304 91.8734 24.3469C91.4012 24.3898 90.9398 24.4542 90.4891 24.5401C90.0384 24.6259 89.6091 24.7225 89.2014 24.8298C88.815 24.9157 88.4824 25.023 88.2034 25.1518V36.1297Z" fill="white"/>
<path d="M72.3821 25.6989C73.2835 25.6989 73.9703 25.495 74.4425 25.0872C74.9361 24.658 75.183 24.0141 75.183 23.1556C75.183 22.34 74.9254 21.7176 74.4103 21.2884C73.9167 20.8377 73.187 20.6123 72.2212 20.6123C71.8778 20.6123 71.588 20.623 71.3519 20.6445C71.1373 20.6445 70.912 20.666 70.6759 20.7089V25.6989H72.3821ZM70.7081 36.033C70.472 36.0974 70.0964 36.1617 69.5813 36.2261C69.0877 36.2905 68.594 36.3227 68.1004 36.3227C67.6068 36.3227 67.1668 36.2798 66.7805 36.1939C66.4156 36.1296 66.1044 36.0008 65.8469 35.8076C65.5893 35.6145 65.3962 35.3462 65.2674 35.0028C65.1386 34.6594 65.0742 34.2087 65.0742 33.6507V18.4875C65.0742 18.0368 65.1923 17.6934 65.4283 17.4573C65.6859 17.1998 66.0293 16.9959 66.4585 16.8457C67.1883 16.5881 68.0146 16.4057 68.9374 16.2984C69.8818 16.1696 70.8261 16.1052 71.7705 16.1052C74.7323 16.1052 76.9965 16.7384 78.5633 18.0046C80.13 19.2709 80.9134 20.9879 80.9134 23.1556C80.9134 24.2072 80.7417 25.1623 80.3983 26.0208C80.0764 26.8578 79.5827 27.5876 78.9174 28.21C78.2735 28.8109 77.4472 29.2831 76.4385 29.6265C75.4512 29.9484 74.303 30.1094 72.9938 30.1094H70.7081V36.033Z" fill="white"/>
<defs>
<linearGradient id="paint0_linear_3597_17653" x1="27.5537" y1="0.172385" x2="26.1814" y2="48.9041" gradientUnits="userSpaceOnUse">
<stop stop-color="#66D5C6"/>
<stop offset="1" stop-color="#16B8D5"/>
</linearGradient>
<linearGradient id="paint1_linear_3597_17653" x1="26.5212" y1="42.1656" x2="26.5369" y2="36.107" gradientUnits="userSpaceOnUse">
<stop stop-color="#DB1627"/>
<stop offset="1" stop-color="#FF384A"/>
</linearGradient>
<linearGradient id="paint2_linear_3597_17653" x1="26.2086" y1="38.5092" x2="26.1471" y2="40.4038" gradientUnits="userSpaceOnUse">
<stop stop-color="#E52032"/>
<stop offset="1" stop-color="#E9293E"/>
</linearGradient>
</defs>
</svg>
